<svg height="512" viewBox="0 0 58 58" width="512" xmlns="http://www.w3.org/2000/svg"><g id="055---Comic-Collecting" fill="none"><path id="Shape" d="m29.91 40-.66 6h-27.25c-1.10320187-.0032948-1.9967052-.8967981-2-2 0-1.1.9-4 2-4z" fill="#f29c1f"/><path id="Shape" d="m32 1v28.25l-2.09 12.75h-27.91c-1.10320187.0032948-1.9967052.8967981-2 2v-42c.0032948-1.10320187.89679813-1.9967052 2-2h29c.2652165 0 .5195704.10535684.7071068.29289322s.2928932.44189029.2928932.70710678z" fill="#f0c419"/><path id="Shape" d="m25 17v12.14c.0252759 2.8705243-1.5052662 5.5298411-4 6.95v-3.09c0-1.6568542-1.3431458-3-3-3h-4c-1.6568542 0-3 1.3431458-3 3v3.09c-2.49473384-1.4201589-4.02527588-4.0794757-4-6.95v-12.14c-.00207898-.3842967.21625178-.7357863.56167105-.9042315s.75680912-.1240415 1.05832895.1142315l3.99 3.19c2.2285344-.533338 4.5514656-.533338 6.78 0l3.99-3.19c.3015198-.238273.7129097-.2826767 1.0583289-.1142315.3454193.1684452.5637501.5199348.5616711.9042315z" fill="#393f4a"/><path id="Shape" d="m21 33v3.09c-1.0694978.5980284-2.2746586.9113703-3.5.91h-3c-1.2253414.0013703-2.4305022-.3119716-3.5-.91v-3.09c0-1.6568542 1.3431458-3 3-3h4c1.6568542 0 3 1.3431458 3 3z" fill="#fdd7ad"/><path id="Shape" d="m13 26h-1c-.5522847 0-1-.4477153-1-1s.4477153-1 1-1h1c.5522847 0 1 .4477153 1 1s-.4477153 1-1 1z" fill="#b0d3f0"/><path id="Shape" d="m20 26h-1c-.5522847 0-1-.4477153-1-1s.4477153-1 1-1h1c.5522847 0 1 .4477153 1 1s-.4477153 1-1 1z" fill="#b0d3f0"/><path id="Shape" d="m17 34h-2c-.5522847 0-1-.4477153-1-1s.4477153-1 1-1h2c.5522847 0 1 .4477153 1 1s-.4477153 1-1 1z" fill="#393f4a"/><path id="Shape" d="m16 30c-.7749671.0000263-1.4946897-.4012248-1.9021202-1.0604474-.4074305-.6592225-.4444662-1.4824062-.0978798-2.1755526l1.105-2.211c.2468713-.4942949.8477051-.6948713 1.342-.448s.6948713.8477051.448 1.342l-1.106 2.211c-.0367897.0731821-.0330027.1602068.0100053.2299163.0430079.0697096.1190856.1121339.2009947.1120837.5522847 0 1 .4477153 1 1s-.4477153 1-1 1z" fill="#2c2f38"/><g fill="#c03a2b"><path id="Shape" d="m13 13c-.1197749-.0004117-.2385583-.0217318-.351-.063-.2488487-.0929529-.4504871-.2810988-.5604248-.5229244-.1099378-.2418256-.1191396-.5174562-.0255752-.7660756l3-8c.1932997-.51749081.7695092-.78029966 1.287-.587s.7802997.76950919.587 1.287l-3 8c-.1454235.3917637-.5191163.6517933-.937.652z"/><path id="Shape" d="m17 13c-.1197749-.0004117-.2385583-.0217318-.351-.063-.2488487-.0929529-.4504871-.2810988-.5604248-.5229244-.1099378-.2418256-.1191396-.5174562-.0255752-.7660756l3-8c.1932997-.5174908.7695092-.78029964 1.287-.58699998s.7802996.76950917.587 1.28699998l-3 8c-.1454235.3917637-.5191163.6517933-.937.652z"/><path id="Shape" d="m21 7h-8c-.5522847 0-1-.44771525-1-1s.4477153-1 1-1h8c.5522847 0 1 .44771525 1 1s-.4477153 1-1 1z"/><path id="Shape" d="m20 11h-8c-.5522847 0-1-.4477153-1-1 0-.55228475.4477153-1 1-1h8c.5522847 0 1 .44771525 1 1 0 .5522847-.4477153 1-1 1z"/><path id="Shape" d="m25 13c-.1197749-.0004117-.2385583-.0217318-.351-.063-.2488487-.0929529-.4504871-.2810988-.5604248-.5229244-.1099378-.2418256-.1191396-.5174562-.0255752-.7660756l1.912-5.1-.42.28c-.4595009.30651804-1.080482.18250091-1.387-.277s-.1825009-1.08048196.277-1.387l3-2c.3612661-.24191981.8374521-.22268478 1.1780289.04758523.3405767.27027001.467491.72963469.3139711 1.13641477l-3 8c-.1454235.3917637-.5191163.6517933-.937.652z"/><path id="Shape" d="m28 13h-5c-.5522847 0-1-.4477153-1-1s.4477153-1 1-1h5c.5522847 0 1 .4477153 1 1s-.4477153 1-1 1z"/></g><path id="Shape" d="m49.34 45.1c-2.6085179 4.4209001-7.7390317 6.6944118-12.7662436 5.6571731s-8.838893-5.1557475-9.4845959-10.2480742c-.6457028-5.0923267 2.017429-10.0318364 6.6266638-12.2909687 4.6092348-2.2591322 10.1448175-1.3380728 13.7741757 2.2918698 3.8831891 3.8667452 4.6452133 9.8764389 1.85 14.59z" fill="#d1d4d1"/><path id="Shape" d="m44.558 31.924c-4.219 1.276-11.082 4.421-13.287 11.676-.8381864-1.3874641-1.2779412-2.9790235-1.271-4.6.0010505-3.4443553 1.9678176-6.5860333 5.0656275-8.0917418 3.0978099-1.5057084 6.7832932-1.1113392 9.4923725 1.0157418z" fill="#3b97d3"/><path id="Shape" d="m48 39c.0026575 2.3877621-.9447006 4.6784917-2.6331045 6.3668955-1.6884038 1.6884039-3.9791334 2.635762-6.3668955 2.6331045-2.1130749.0136666-4.1608776-.7315051-5.771-2.1-.2111694-.1632452-.4115858-.3399456-.6-.529-.5283939-.5282071-.9849803-1.1236522-1.358-1.771 2.2-7.256 9.068-10.406 13.287-11.677.2854913.2172817.5557886.4538336.809.708.1887907.1886621.3654759.3890611.529.6 1.3694885 1.6090316 2.1160715 3.6561025 2.104 5.769z" fill="#2980ba"/><path id="Shape" d="m52.44 48.2-4.24 4.24h-.01l-3.09-3.1c1.7504187-1.030396 3.209604-2.4895813 4.24-4.24z" fill="#95a5a5"/><path id="Shape" d="m57.12 57.12c-.5617198.5632738-1.3245087.8798486-2.12.8798486s-1.5582802-.3165748-2.12-.8798486l-4.68-4.68 4.24-4.24 4.68 4.68c1.1698135 1.1712702 1.1698135 3.0687298 0 4.24z" fill="#285680"/><path id="Shape" d="m33 38c-.5522847 0-1-.4477153-1-1 0-3.679 3.533-4.9 3.684-4.949.5246705-.1761788 1.0928212.1063295 1.269.631s-.1063295 1.0928212-.631 1.269c-1.3212322.4506623-2.2387937 1.6555052-2.322 3.049 0 .5522847-.4477153 1-1 1z" fill="#b0d3f0"/><path id="Shape" d="m4 6c-.55228475 0-1-.44771525-1-1v-1c0-.55228475.44771525-1 1-1s1 .44771525 1 1v1c0 .55228475-.44771525 1-1 1z" fill="#f9eab0"/><path id="Shape" d="m4 16c-.55228475 0-1-.4477153-1-1v-6c0-.55228475.44771525-1 1-1s1 .44771525 1 1v6c0 .5522847-.44771525 1-1 1z" fill="#f9eab0"/></g></svg>