<?xml version="1.0" encoding="iso-8859-1"?>
<!-- Generator: Adobe Illustrator 19.0.0, SVG Export Plug-In . SVG Version: 6.00 Build 0)  -->
<svg version="1.1" id="Capa_1" xmlns="http://www.w3.org/2000/svg" xmlns:xlink="http://www.w3.org/1999/xlink" x="0px" y="0px"
	 viewBox="0 0 512 512" style="enable-background:new 0 0 512 512;" xml:space="preserve">
<path style="fill:#303C42;" d="M373.333,85.333h-10.667V32c0-17.646-14.354-32-32-32H181.333c-17.646,0-32,14.354-32,32v53.333
	h-10.667c-52.938,0-96,43.063-96,96V352c0,49.285,37.465,89.536,85.333,94.922v54.411c0,5.896,4.771,10.667,10.667,10.667h234.667
	c5.896,0,10.667-4.771,10.667-10.667v-54.411c47.868-5.385,85.333-45.637,85.333-94.922V181.333
	C469.333,128.396,426.271,85.333,373.333,85.333z"/>
<g>
	<path style="fill:#FDD835;" d="M170.667,32c0-5.875,4.792-10.667,10.667-10.667h149.333c5.875,0,10.667,4.792,10.667,10.667v53.333
		H170.667V32z"/>
	<rect x="149.333" y="448" style="fill:#FDD835;" width="213.333" height="42.667"/>
	<path style="fill:#FDD835;" d="M448,352c0,41.167-33.5,74.667-74.667,74.667H138.667C97.5,426.667,64,393.167,64,352V181.333
		c0-41.167,33.5-74.667,74.667-74.667h234.667c41.167,0,74.667,33.5,74.667,74.667V352z"/>
</g>
<path style="opacity:0.2;fill:#FFFFFF;enable-background:new    ;" d="M209.333,21.333h-28c-5.875,0-10.667,4.792-10.667,10.667
	v53.333h32V32C202.667,26.125,205.661,21.333,209.333,21.333z"/>
<path style="opacity:0.1;enable-background:new    ;" d="M330.667,21.333h-28c3.672,0,6.667,4.792,6.667,10.667v53.333h32V32
	C341.333,26.125,336.542,21.333,330.667,21.333z"/>
<rect x="149.333" y="448" style="opacity:0.2;fill:#FFFFFF;enable-background:new    ;" width="23.701" height="42.667"/>
<rect x="338.965" y="448" style="opacity:0.1;enable-background:new    ;" width="23.701" height="42.667"/>
<path style="opacity:0.2;fill:#FFFFFF;enable-background:new    ;" d="M106.667,352V181.333c0-41.167,26.056-74.667,58.074-74.667
	h-26.074C97.5,106.667,64,140.167,64,181.333V352c0,41.167,33.5,74.667,74.667,74.667h26.074
	C132.723,426.667,106.667,393.167,106.667,352z"/>
<path style="opacity:0.1;enable-background:new    ;" d="M373.333,106.667h-26.074c32.018,0,58.074,33.5,58.074,74.667V352
	c0,41.167-26.056,74.667-58.074,74.667h26.074C414.5,426.667,448,393.167,448,352V181.333
	C448,140.167,414.5,106.667,373.333,106.667z"/>
<g>
	<path style="fill:#303C42;" d="M319.167,312.854c-16.542,18.375-38.979,28.479-63.167,28.479s-46.625-10.104-63.167-28.479
		c-3.958-4.375-10.688-4.771-15.063-0.771c-4.375,3.938-4.729,10.688-0.771,15.063c20.333,22.563,49.125,35.521,79,35.521
		s58.667-12.958,79-35.521c3.958-4.375,3.604-11.125-0.771-15.063C329.854,308.104,323.125,308.5,319.167,312.854z"/>
	<circle style="fill:#303C42;" cx="192" cy="234.667" r="21.333"/>
	<circle style="fill:#303C42;" cx="320" cy="234.667" r="21.333"/>
</g>
<linearGradient id="SVGID_1_" gradientUnits="userSpaceOnUse" x1="-37.2031" y1="627.9844" x2="-31.2031" y2="621.9844" gradientTransform="matrix(21.3333 0 0 -21.3333 996.3334 13791.667)">
	<stop  offset="0" style="stop-color:#000000;stop-opacity:0.1"/>
	<stop  offset="1" style="stop-color:#000000;stop-opacity:0"/>
</linearGradient>
<polygon style="fill:url(#SVGID_1_);" points="362.667,490.667 362.667,448 149.333,448 192,490.667 "/>
<linearGradient id="SVGID_2_" gradientUnits="userSpaceOnUse" x1="-44.7987" y1="638.7763" x2="-24.545" y2="629.3339" gradientTransform="matrix(21.3333 0 0 -21.3333 996.3334 13791.667)">
	<stop  offset="0" style="stop-color:#FFFFFF;stop-opacity:0.2"/>
	<stop  offset="1" style="stop-color:#FFFFFF;stop-opacity:0"/>
</linearGradient>
<path style="fill:url(#SVGID_2_);" d="M373.333,85.333h-10.667V32c0-17.646-14.354-32-32-32H181.333c-17.646,0-32,14.354-32,32
	v53.333h-10.667c-52.938,0-96,43.063-96,96V352c0,49.285,37.465,89.536,85.333,94.922v54.411c0,5.896,4.771,10.667,10.667,10.667
	h234.667c5.896,0,10.667-4.771,10.667-10.667v-54.411c47.868-5.385,85.333-45.637,85.333-94.922V181.333
	C469.333,128.396,426.271,85.333,373.333,85.333z"/>
<g>
</g>
<g>
</g>
<g>
</g>
<g>
</g>
<g>
</g>
<g>
</g>
<g>
</g>
<g>
</g>
<g>
</g>
<g>
</g>
<g>
</g>
<g>
</g>
<g>
</g>
<g>
</g>
<g>
</g>
</svg>
