<?xml version="1.0" encoding="UTF-8"?>
<svg xmlns="http://www.w3.org/2000/svg" xmlns:xlink="http://www.w3.org/1999/xlink" width="640pt" height="640pt" viewBox="0 0 640 640" version="1.1">
<g id="surface1">
<path style=" stroke:none;fill-rule:nonzero;fill:rgb(100%,100%,100%);fill-opacity:1;" d="M 4.347656 4.28125 L 635.808594 4.28125 L 635.808594 635.722656 L 4.347656 635.722656 Z M 4.347656 4.28125 "/>
<path style=" stroke:none;fill-rule:nonzero;fill:rgb(100%,100%,0%);fill-opacity:1;" d="M 593.789062 266.765625 C 592.722656 286.441406 586.472656 310.953125 580.960938 327.324219 C 558.75 393.308594 533.007812 434.183594 473.40625 434.183594 C 455.863281 434.183594 424.699219 429.535156 413.253906 398.320312 L 410.515625 390.898438 L 405.632812 397.089844 C 386.996094 420.71875 359.292969 434.347656 329.636719 434.480469 C 306.886719 434.589844 288.597656 426.964844 276.785156 412.449219 L 273.535156 408.441406 L 270.085938 412.246094 C 257.445312 426.191406 235.453125 434.183594 209.730469 434.183594 C 189.539062 434.183594 172.101562 427.351562 160.628906 414.890625 L 157.503906 411.476562 L 154.246094 414.78125 C 141.496094 427.644531 121.402344 434.128906 96.128906 433.558594 C 65.464844 432.820312 46.796875 415.699219 46.203125 387.753906 C 45.273438 344.664062 86.972656 253.992188 104.242188 226.433594 C 115.464844 208.023438 130.867188 199.097656 151.371094 199.097656 C 165.339844 199.097656 174.871094 202.015625 180.558594 208.023438 C 185.710938 213.5 186.742188 218.109375 187.191406 229.191406 L 187.796875 243.523438 L 195.355469 231.339844 C 213.667969 201.832031 243.992188 197.773438 274.058594 197.773438 C 294.960938 197.773438 313.195312 205.449219 320.519531 217.359375 L 323.226562 221.730469 L 327.140625 218.402344 C 342.628906 205.230469 364.492188 197.972656 388.675781 197.972656 C 415.078125 197.972656 434.273438 204.535156 445.726562 217.503906 C 448.3125 220.445312 450.039062 222.503906 452.425781 227.519531 L 455.367188 233.691406 L 459.796875 228.472656 C 476.53125 208.644531 499.425781 198.597656 527.832031 198.597656 C 550.320312 198.597656 567.371094 204.566406 578.542969 216.347656 C 592.570312 231.136719 594.578125 251.9375 593.789062 266.765625 M 4.347656 635.722656 L 635.808594 635.722656 L 635.808594 4.28125 L 4.347656 4.28125 Z M 4.347656 635.722656 "/>
<path style=" stroke:none;fill-rule:nonzero;fill:rgb(100%,0%,0%);fill-opacity:1;" d="M 611.566406 291 C 608.699219 313.964844 593.160156 356.542969 584.925781 373.550781 C 562.769531 419.171875 533.1875 454.230469 476.210938 454.230469 C 445.769531 454.230469 420.722656 444.492188 406.082031 425.863281 C 384.640625 444.636719 358.089844 454.488281 329.519531 454.488281 C 307.480469 454.488281 288.03125 448.132812 273.203125 436.371094 C 256.816406 447.910156 234.730469 454.339844 210.226562 454.339844 C 189.777344 454.339844 171.378906 448.738281 156.964844 438.355469 C 141.035156 448.921875 120.15625 454.179688 95.632812 453.585938 C 54.84375 452.632812 26.679688 426.761719 25.871094 389.207031 C 24.796875 339.300781 66.824219 247.96875 86.640625 216.328125 C 101.449219 191.984375 124.085938 178.902344 151.792969 178.902344 C 181.878906 178.902344 192.792969 187.503906 198.148438 198.433594 C 221.371094 178.699219 252.148438 177.578125 274.046875 177.578125 C 298.246094 177.578125 313.410156 183.992188 326.320312 194.28125 C 344.160156 183.585938 364.59375 178.039062 388.957031 178.039062 C 420.117188 178.039062 443.234375 185.277344 459.363281 201.226562 C 478.175781 185.554688 501.765625 178.425781 528.136719 178.425781 C 563.023438 178.425781 585.972656 191.011719 599.460938 209.753906 C 618.441406 236.210938 615.0625 262.851562 611.566406 291 M 4.347656 635.722656 L 635.808594 635.722656 L 635.808594 4.28125 L 4.347656 4.28125 Z M 4.347656 635.722656 "/>
<path style=" stroke:none;fill-rule:nonzero;fill:rgb(0%,0%,0%);fill-opacity:1;" d="M 8.800781 8.820312 L 631.195312 8.820312 L 631.195312 631.203125 L 8.800781 631.203125 Z M 0.00390625 640.003906 L 639.996094 640.003906 L 639.996094 0 L 0.00390625 0 Z M 0.00390625 640.003906 "/>
<path style=" stroke:none;fill-rule:nonzero;fill:rgb(0%,0%,0%);fill-opacity:1;" d="M 611.277344 177.746094 C 607.207031 177.742188 603.300781 179.359375 600.425781 182.242188 C 597.550781 185.125 595.941406 189.035156 595.957031 193.105469 C 595.949219 197.171875 597.558594 201.070312 600.4375 203.945312 C 603.3125 206.816406 607.214844 208.425781 611.277344 208.414062 C 619.785156 208.414062 626.640625 201.597656 626.640625 193.105469 C 626.648438 189.027344 625.03125 185.117188 622.148438 182.234375 C 619.265625 179.351562 615.355469 177.734375 611.277344 177.746094 M 611.277344 180.777344 C 618.09375 180.777344 623.644531 186.285156 623.644531 193.105469 C 623.644531 199.886719 618.097656 205.433594 611.277344 205.433594 C 604.480469 205.433594 599.003906 199.886719 599.003906 193.105469 C 599.003906 186.289062 604.480469 180.777344 611.277344 180.777344 Z M 619.085938 201.097656 L 617.25 197.902344 C 615.652344 195.089844 615.195312 194.667969 613.847656 194.171875 L 613.847656 194.097656 C 616.535156 193.789062 618.136719 192.039062 618.136719 189.648438 C 618.136719 187.132812 616.535156 185.222656 613.121094 185.222656 L 605.21875 185.222656 L 605.21875 201.097656 L 608.488281 201.097656 L 608.488281 194.59375 L 609.074219 194.59375 C 610.472656 194.59375 611.042969 194.742188 611.683594 195.386719 C 612.3125 196.027344 613.285156 197.367188 613.855469 198.507812 L 615.125 201.097656 Z M 608.484375 192.039062 L 608.484375 187.703125 L 611.421875 187.703125 C 613.597656 187.703125 614.730469 188.457031 614.730469 189.855469 C 614.730469 190.972656 614.015625 192.039062 611.8125 192.039062 Z M 532.046875 265.496094 C 531.386719 281.851562 507.429688 347.242188 498.921875 361.664062 C 495.230469 367.925781 491.078125 373.089844 483.582031 373.070312 C 477.042969 373.070312 474.136719 368.441406 473.953125 363.152344 C 473.46875 348.394531 500.554688 274.425781 509.816406 262.390625 C 513.933594 256.050781 518.523438 255.023438 523.78125 255.097656 C 531.464844 255.191406 532.230469 260.738281 532.046875 265.496094 M 575.703125 292.195312 C 570.265625 319.292969 558.03125 351.351562 544.722656 375.242188 C 523.042969 414.230469 496.714844 419.683594 473.734375 419.410156 C 450.765625 419.132812 424.820312 410.648438 424.636719 375.183594 C 424.492188 349.714844 435.476562 313.777344 444.816406 290.222656 C 461.054688 247.503906 477.664062 212.6875 530.175781 213.3125 C 591.398438 214.03125 580.484375 268.492188 575.703125 292.195312 Z M 381.300781 254.214844 C 372.425781 254.214844 366.632812 259.820312 362.320312 265.882812 C 352.835938 279.203125 332.257812 332.613281 329.0625 354.550781 C 326.894531 369.585938 333.367188 372.632812 340.472656 372.632812 C 351.847656 372.632812 364.597656 360.597656 368.949219 340.734375 C 368.949219 340.734375 347.285156 340.199219 353.261719 320.996094 C 359.050781 302.347656 370.074219 298.324219 388.316406 297.570312 C 424.273438 296.101562 420.710938 322.648438 417.84375 336.800781 C 408.503906 382.769531 375.785156 419.699219 329.5 419.699219 C 297.8125 419.699219 278.15625 402.15625 278.15625 369.859375 C 278.15625 346.847656 289.578125 310.710938 298.621094 289.566406 C 317.886719 244.550781 338.097656 213.039062 389.582031 213.039062 C 420.464844 213.039062 444.832031 224.136719 441.246094 253.074219 C 438.636719 274.316406 428.015625 286.789062 408.710938 288.296875 C 403.308594 288.714844 381.207031 288.148438 388.539062 267.242188 C 391.085938 259.949219 392.152344 254.214844 381.300781 254.214844 Z M 220.226562 333.8125 C 218.09375 339.558594 214.089844 351.558594 210.855469 364.292969 C 221.355469 361.683594 229.238281 359.832031 242.742188 360.179688 C 258.140625 360.542969 267.980469 366.941406 267.980469 379.65625 C 267.980469 410.5 233.886719 419.5625 210.234375 419.5625 C 184.253906 419.5625 161.449219 404.769531 161.449219 376.378906 C 161.449219 343.066406 179.492188 292.597656 196.425781 258.972656 C 217.230469 217.667969 238.492188 212.175781 275.089844 212.175781 C 291.179688 212.175781 309.707031 219.050781 309.707031 234.226562 C 309.707031 255.28125 291.875 263.308594 274.179688 264.339844 C 266.636719 264.761719 255.019531 265.183594 248.074219 264.6875 C 248.074219 264.6875 242.183594 273.675781 235.917969 289.640625 C 268.671875 285.027344 282.5625 292.472656 277.03125 311.414062 C 269.558594 336.988281 247.371094 338.679688 220.226562 333.8125 Z M 115.917969 363.40625 C 147.953125 357.84375 156.011719 369.4375 154.992188 380.128906 C 151.988281 412.246094 122.523438 419.410156 96.949219 418.824219 C 78.402344 418.382812 61.726562 409.898438 61.261719 388.359375 C 60.453125 350.695312 98.871094 263.550781 116.96875 234.667969 C 125.308594 220.945312 135.488281 214.183594 151.71875 214.183594 C 167.089844 214.183594 170.910156 222.0625 170.679688 231.527344 C 170.085938 256.75 129.296875 333.441406 115.917969 363.40625 Z M 527.824219 194.191406 C 494.753906 194.191406 471.898438 207.308594 456.425781 225.609375 C 453.816406 220.136719 451.8125 217.730469 449.019531 214.566406 C 436.359375 200.253906 415.980469 193.5625 388.660156 193.5625 C 361.96875 193.5625 339.710938 201.90625 324.265625 215.042969 C 316.234375 201.996094 297.117188 193.34375 274.050781 193.34375 C 243.910156 193.34375 211.082031 197.625 191.589844 229.007812 C 191.140625 217.703125 190.101562 211.734375 183.746094 204.992188 C 176.027344 196.832031 163.535156 194.683594 151.363281 194.683594 C 129.175781 194.683594 112.492188 204.367188 100.484375 224.105469 C 83.066406 251.9375 40.824219 343.511719 41.789062 387.847656 C 42.386719 416.507812 61.617188 437.144531 96.011719 437.953125 C 122.890625 438.59375 143.964844 431.410156 157.378906 417.886719 C 169.40625 430.933594 187.765625 438.613281 209.726562 438.613281 C 234.179688 438.613281 258.808594 431.285156 273.351562 415.222656 C 285.609375 430.253906 304.871094 439 329.648438 438.886719 C 362.058594 438.742188 390.5 423.382812 409.097656 399.824219 C 419.273438 427.585938 445.144531 438.609375 473.40625 438.609375 C 535.320312 438.609375 562.496094 396.058594 585.152344 328.734375 C 590.257812 313.558594 597.0625 288.261719 598.199219 267.003906 C 600.070312 231.617188 585.097656 194.191406 527.824219 194.191406 Z M 527.824219 194.191406 "/>
</g>
</svg>
